{"title":"Main Tera Hero (2014) - 700MB - WebRip - XviD [1CD] {VikkyMaxx}[","uid":10181408,"size":737134011,"categoryP":"video","categoryS":"movies","magnet":"?xt=urn:btih:0fcbbc4c7a114db2e3328d444c24dfb111b34033&amp;dn=Main+Tera+Hero+%282014%29+-+700MB+-+WebRip+-+XviD+%5B1CD%5D+%7BVikkyMaxx%7D%5B&amp;tr=udp%3A%2F%2Ftracker.openbittorrent.com%3A80&amp;tr=udp%3A%2F%2Fopen.demonii.com%3A1337&amp;tr=udp%3A%2F%2Ftracker.coppersurfer.tk%3A6969&amp;tr=udp%3A%2F%2Fexodus.desync.com%3A6969","seeders":0,"leechers":1,"uploader":"shailendramaxx","files":20,"time":1400532078,"description":"VikkyMAxx SilverRG Presents:-\n\n\n\nGeneral:-\n \nComplete name :Main Tera Hero (2014) - 700MB - WebRip - XviD [1CD] {VikkyMaxx}[SilverRG]\nFormat : AVI \nFormat/Info : Audio Video Interleave \nFile size : 691 MiB \nDuration : 2h 6mn \nOverall bit rate : 763 Kbps \n\nVideo \nID : 0 \nFormat : MPEG-4 Visual \nFormat profile : Advanced Simple@L5 \nFormat settings, BVOP : 2 \nFormat settings, QPel : No \nFormat settings, GMC : No warppoints \nFormat settings, Matrix : Default (H.263) \nCodec ID : XVID \nCodec ID/Hint : XviD \nDuration : 2h 6mn \nBit rate : 676 Kbps \nWidth : 640 pixels \nHeight : 272 pixels \nDisplay aspect ratio : 2.35:1 \nFrame rate : 29.970 fps \nColor space : YUV \nChroma subsampling : 4:2:0 \nBit depth : 8 bits \nScan type : Progressive \nCompression mode : Lossy \nBits/(Pixel*Frame) : 0.130 \nStream size : 612 MiB (89%) \nWriting library : XviD 1.2.1 (UTC 2008-12-04) \n\nAudio \nID : 1 \nFormat : MPEG Audio \nFormat version : Version 1 \nFormat profile : Layer 3 \nMode : Joint stereo \nMode extension : MS Stereo \nCodec ID : 55 \nCodec ID/Hint : MP3 \nDuration : 2h 6mn \nBit rate mode : Constant \nBit rate : 80.0 Kbps \nChannel(s) : 2 channels \nSampling rate : 32.0 KHz \nCompression mode : Lossy \nStream size : 72.5 MiB (10%) \nAlignment : Aligned on interleaves \nInterleave, duration : 133 ms (4.00 video frames) \nInterleave, preload duration : 216 ms \nTitle : VTS_01_1 T80 3_2ch 448Kbps DELAY 0ms \nWriting library : LAME3.99r \nEncoding settings : -m j -V 4 -q 2 -lowpass 13.5 -b 80 \nLanguage: Hindi\n\n\nSCREENS:-\n &lt;a href=&quot;\nhttp://i.imgur.com/6sY28VS.png&quot; rel=&quot;nofollow&quot; target=&quot;_NEW&quot;&gt;\nhttp://i.imgur.com/6sY28VS.png&lt;/a&gt;\n &lt;a href=&quot;\nhttp://i.imgur.com/Vrj8yq1.png&quot; rel=&quot;nofollow&quot; target=&quot;_NEW&quot;&gt;\nhttp://i.imgur.com/Vrj8yq1.png&lt;/a&gt;\n &lt;a href=&quot;\nhttp://i.imgur.com/LbnbnH8.png&quot; rel=&quot;nofollow&quot; target=&quot;_NEW&quot;&gt;\nhttp://i.imgur.com/LbnbnH8.png&lt;/a&gt;\n &lt;a href=&quot;\nhttp://i.imgur.com/mbjmDte.png&quot; rel=&quot;nofollow&quot; target=&quot;_NEW&quot;&gt;\nhttp://i.imgur.com/mbjmDte.png&lt;/a&gt;\n &lt;a href=&quot;\nhttp://i.imgur.com/GNvbiDm.png&quot; rel=&quot;nofollow&quot; target=&quot;_NEW&quot;&gt;\nhttp://i.imgur.com/GNvbiDm.png&lt;/a&gt;\n &lt;a href=&quot;\nhttp://i.imgur.com/OENcPqd.png&quot; rel=&quot;nofollow&quot; target=&quot;_NEW&quot;&gt;\nhttp://i.imgur.com/OENcPqd.png&lt;/a&gt;\n &lt;a href=&quot;\nhttp://i.imgur.com/4ok5P0v.png&quot; rel=&quot;nofollow&quot; target=&quot;_NEW&quot;&gt;\nhttp://i.imgur.com/4ok5P0v.png&lt;/a&gt;\n &lt;a href=&quot;\nhttp://i.imgur.com/RDouJ1C.png&quot; rel=&quot;nofollow&quot; target=&quot;_NEW&quot;&gt;\nhttp://i.imgur.com/RDouJ1C.png&lt;/a&gt;\n &lt;a href=&quot;\nhttp://i.imgur.com/Bz6Zxcp.png&quot; rel=&quot;nofollow&quot; target=&quot;_NEW&quot;&gt;\nhttp://i.imgur.com/Bz6Zxcp.png&lt;/a&gt;\n &lt;a href=&quot;\nhttp://i.imgur.com/xdXPe1T.png&quot; rel=&quot;nofollow&quot; target=&quot;_NEW&quot;&gt;\nhttp://i.imgur.com/xdXPe1T.png&lt;/a&gt;\n &lt;a href=&quot;\nhttp://i.imgur.com/kOooeOg.png&quot; rel=&quot;nofollow&quot; target=&quot;_NEW&quot;&gt;\nhttp://i.imgur.com/kOooeOg.png&lt;/a&gt;\n\n\n\nSAMPLE AND SCREENSHOTS INCLUDED\n\n    \n             \n             ********** PLEASE SEED AS LONG AS YOU CAN AFTER DOWNLOAD **********\n       \n                    ***** THANK YOU REGARDS - VIKKYMAXX (SilverRG) *****\n\n","torrent":{"xt":"urn:btih:0fcbbc4c7a114db2e3328d444c24dfb111b34033","amp;dn":"Main+Tera+Hero+%282014%29+-+700MB+-+WebRip+-+XviD+%5B1CD%5D+%7BVikkyMaxx%7D%5B","amp;tr":["udp%3A%2F%2Ftracker.openbittorrent.com%3A80","udp%3A%2F%2Fopen.demonii.com%3A1337","udp%3A%2F%2Ftracker.coppersurfer.tk%3A6969","udp%3A%2F%2Fexodus.desync.com%3A6969"],"infoHash":"0fcbbc4c7a114db2e3328d444c24dfb111b34033","infoHashBuffer":{"type":"Buffer","data":[15,203,188,76,122,17,77,178,227,50,141,68,76,36,223,177,17,179,64,51]},"announce":[],"urlList":[]}}